<svg xmlns="http://www.w3.org/2000/svg">
  <symbol id="logo-htmlacademy">
    <path d="M13.62.017L13.472 0 0 1.412v24.661l13.472 8.017 13.43-7.99.042-.026V1.412L13.62.017zm11.399 12.11L13.495 5.334l-.001-.104-.087.05-.088-.056v.109L1.925 12.118V3.147l11.547-1.212 11.547 1.212v8.98zm-11.614-5.34L24.923 13.5l-4.479 2.64-7.093-4.221-.013 1.415 5.904 3.513-.86.507-5.031-2.992-.013 1.415 3.827 2.275-.782.523-3.032-1.787-.013 1.413 1.852 1.091-1.8 1.081-11.356-6.751 11.371-6.835zm-11.48 8.34l11.411 6.791.015 1.044-7.941-4.728-.015 1.416 7.979 4.796.017 1.076-7.972-4.741-.013 1.415 8.021 4.821.045.026 8.143-4.872v-1.268l-.011-.148v-3.761l3.415-2.036v10.02L13.472 31.85 1.925 24.979v-9.852z"/>
  </symbol>
  <symbol id="icon-editor-fill">
    <path fill="none" d="M0 0h48v48H0V0z"/><path d="M33.12 17.88L15.24 0l-2.83 2.83 4.76 4.76L6.88 17.88a3 3 0 0 0 0 4.24l11 11c.58.59 1.35.88 2.12.88s1.54-.29 2.12-.88l11-11a3 3 0 0 0 0-4.24zM10.41 20L20 10.42 29.59 20H10.41zM38 23s-4 4.33-4 7c0 2.21 1.79 4 4 4s4-1.79 4-4c0-2.67-4-7-4-7zM0 40h48v3H0z"/>
  </symbol>
  <symbol id="icon-editor-contrast">
    <path fill="#231F20" d="M-19.462-3.96c6.595 0 11.96 5.365 11.96 11.96s-5.365 11.96-11.96 11.96-11.96-5.365-11.96-11.96 5.365-11.96 11.96-11.96m0-4c-8.814 0-15.96 7.145-15.96 15.96 0 8.813 7.146 15.96 15.96 15.96S-3.502 16.813-3.502 8c0-8.815-7.146-15.96-15.96-15.96z"/><path d="M-19.462 16.331a8.519 8.519 0 0 0 8.52-8.52 8.518 8.518 0 0 0-8.52-8.519"/>
  </symbol>
  <symbol id="icon-editor-crop">
    <path fill="none" d="M0 0h48v48H0V0z"/><path d="M34 30h4V14c0-2.21-1.79-4-4-4H18v4h16v16zm-20 4V2h-4v8H2v4h8v20c0 2.21 1.79 4 4 4h20v8h4v-8h8v-4H14z"/>
  </symbol>
  <symbol id="icon-facebook">
    <path d="M6.275 3.357h2.398V0H5.795C2.656.181 1.54 2.387 1.948 6.115H0v3.517h1.958v9.312h3.837V9.632h2.857V6.115H5.786c-.021-1.045-.036-2.406.489-2.758z"/>
  </symbol>
  <symbol id="icon-twitter">
    <path fill-rule="evenodd" clip-rule="evenodd" d="M11.283.153c1.736-.485 3.074.263 3.685 1.151.694-.226 1.372-.47 2.072-.691-.004.841-.538 1.478-.883 1.727.704.166 1.343-.48 1.343-.48-.175.976-1.035 1.746-1.611 1.977-.239 6.592-3.272 10.956-10.382 10.823h-.46c-.422 0-4.29-.45-5.047-1.843 2.341.192 4.011-.412 4.835-1.15-.989-.293-2.761-.464-3.07-2.881.362.105.583.223 1.228.117C1.757 8.067.385 7.366.461 5.218c.294.32 1.1.523 1.381.461C1.117 5.444-.188 2.398.921.843 2.794 2.654 4.769 4.364 8.29 4.528 8.506 2.288 9.461.787 11.283.153z"/>
  </symbol>
  <symbol id="icon-youtube">
    <path d="M1.775 13.78C.799 14.257 0 13.758 0 12.671V1.29C0 .202.799-.295 1.775.181l12.133 5.932c.975.478.975 1.258 0 1.736L1.775 13.78z"/>
  </symbol>
</svg>
